<svg width="128" height="52" viewBox="0 0 128 52" fill="none" xmlns="http://www.w3.org/2000/svg">
<rect width="128" height="52" rx="8" fill="#E60000"/>
<path fill-rule="evenodd" clip-rule="evenodd" d="M24.5 19.6527C24.5 18.2266 26.029 17.3225 27.2786 18.0098L38.8192 24.3571C40.1144 25.0695 40.1144 26.9306 38.8192 27.6429L27.2786 33.9902C26.029 34.6775 24.5 33.7735 24.5 32.3473V19.6527Z" fill="white"/>
<path d="M48.98 31.5V21.42H53.054C53.152 21.42 53.2733 21.4247 53.418 21.434C53.5627 21.4387 53.7003 21.4527 53.831 21.476C54.391 21.5647 54.8577 21.756 55.231 22.05C55.609 22.344 55.8913 22.715 56.078 23.163C56.2647 23.611 56.358 24.1057 56.358 24.647C56.358 25.193 56.2647 25.69 56.078 26.138C55.8913 26.586 55.609 26.957 55.231 27.251C54.8577 27.545 54.391 27.7363 53.831 27.825C53.7003 27.8437 53.5603 27.8577 53.411 27.867C53.2663 27.8763 53.1473 27.881 53.054 27.881H50.443V31.5H48.98ZM50.443 26.495H52.998C53.0913 26.495 53.194 26.4903 53.306 26.481C53.4227 26.4717 53.5323 26.4553 53.635 26.432C53.9337 26.362 54.174 26.2337 54.356 26.047C54.538 25.8557 54.6687 25.6363 54.748 25.389C54.8273 25.1417 54.867 24.8943 54.867 24.647C54.867 24.3997 54.8273 24.1547 54.748 23.912C54.6687 23.6647 54.538 23.4477 54.356 23.261C54.174 23.0697 53.9337 22.939 53.635 22.869C53.5323 22.841 53.4227 22.8223 53.306 22.813C53.194 22.8037 53.0913 22.799 52.998 22.799H50.443V26.495ZM57.8973 31.5V21.21H59.3603V31.5H57.8973ZM63.5974 31.71C63.0374 31.71 62.5684 31.6073 62.1904 31.402C61.8124 31.192 61.5254 30.9167 61.3294 30.576C61.1381 30.2307 61.0424 29.8527 61.0424 29.442C61.0424 29.0593 61.1101 28.7233 61.2454 28.434C61.3808 28.1447 61.5814 27.8997 61.8474 27.699C62.1134 27.4937 62.4401 27.328 62.8274 27.202C63.1634 27.104 63.5438 27.0177 63.9684 26.943C64.3931 26.8683 64.8388 26.7983 65.3054 26.733C65.7768 26.6677 66.2434 26.6023 66.7054 26.537L66.1734 26.831C66.1828 26.2383 66.0568 25.7997 65.7954 25.515C65.5388 25.2257 65.0954 25.081 64.4654 25.081C64.0688 25.081 63.7048 25.1743 63.3734 25.361C63.0421 25.543 62.8111 25.8463 62.6804 26.271L61.3154 25.851C61.5021 25.2023 61.8568 24.6867 62.3794 24.304C62.9068 23.9213 63.6068 23.73 64.4794 23.73C65.1561 23.73 65.7441 23.8467 66.2434 24.08C66.7474 24.3087 67.1161 24.6727 67.3494 25.172C67.4708 25.4193 67.5454 25.6807 67.5734 25.956C67.6014 26.2313 67.6154 26.5277 67.6154 26.845V31.5H66.3204V29.771L66.5724 29.995C66.2598 30.5737 65.8608 31.0053 65.3754 31.29C64.8948 31.57 64.3021 31.71 63.5974 31.71ZM63.8564 30.513C64.2718 30.513 64.6288 30.4407 64.9274 30.296C65.2261 30.1467 65.4664 29.9577 65.6484 29.729C65.8304 29.5003 65.9494 29.2623 66.0054 29.015C66.0848 28.791 66.1291 28.539 66.1384 28.259C66.1524 27.979 66.1594 27.755 66.1594 27.587L66.6354 27.762C66.1734 27.832 65.7534 27.895 65.3754 27.951C64.9974 28.007 64.6544 28.063 64.3464 28.119C64.0431 28.1703 63.7724 28.2333 63.5344 28.308C63.3338 28.378 63.1541 28.462 62.9954 28.56C62.8414 28.658 62.7178 28.777 62.6244 28.917C62.5358 29.057 62.4914 29.2273 62.4914 29.428C62.4914 29.624 62.5404 29.806 62.6384 29.974C62.7364 30.1373 62.8858 30.268 63.0864 30.366C63.2871 30.464 63.5438 30.513 63.8564 30.513ZM70.0313 34.86L71.4943 30.877L71.5153 32.053L68.2183 23.94H69.7443L72.2083 30.205H71.7603L74.1123 23.94H75.5963L71.4243 34.86H70.0313ZM79.4956 31.5V21.42H80.9796L85.9426 28.91V21.42H87.4266V31.5H85.9426L80.9796 24.003V31.5H79.4956ZM92.6634 31.71C91.9074 31.71 91.2517 31.5397 90.6964 31.199C90.1411 30.8583 89.7117 30.3893 89.4084 29.792C89.1097 29.19 88.9604 28.497 88.9604 27.713C88.9604 26.9243 89.1144 26.2313 89.4224 25.634C89.7304 25.032 90.1621 24.5653 90.7174 24.234C91.2727 23.898 91.9214 23.73 92.6634 23.73C93.4194 23.73 94.0751 23.9003 94.6304 24.241C95.1857 24.5817 95.6151 25.0507 95.9184 25.648C96.2217 26.2453 96.3734 26.9337 96.3734 27.713C96.3734 28.5017 96.2194 29.197 95.9114 29.799C95.6081 30.3963 95.1787 30.8653 94.6234 31.206C94.0681 31.542 93.4147 31.71 92.6634 31.71ZM92.6634 30.331C93.3867 30.331 93.9257 30.0883 94.2804 29.603C94.6397 29.113 94.8194 28.483 94.8194 27.713C94.8194 26.9243 94.6374 26.2943 94.2734 25.823C93.9141 25.347 93.3774 25.109 92.6634 25.109C92.1734 25.109 91.7697 25.221 91.4524 25.445C91.1351 25.6643 90.8994 25.97 90.7454 26.362C90.5914 26.7493 90.5144 27.1997 90.5144 27.713C90.5144 28.5063 90.6964 29.141 91.0604 29.617C91.4244 30.093 91.9587 30.331 92.6634 30.331ZM99.2482 31.5L96.9382 23.933L98.3872 23.94L99.9692 29.127L101.565 23.94H102.825L104.421 29.127L106.003 23.94H107.445L105.135 31.5H103.959L102.195 26.026L100.424 31.5H99.2482Z" fill="white"/>
</svg>
